<svg xmlns="http://www.w3.org/2000/svg" version="1.1" xmlns:xlink="http://www.w3.org/1999/xlink" xmlns:svgjs="http://svgjs.dev/svgjs" width="1500" height="1500" viewBox="0 0 1500 1500"><rect width="1500" height="1500" fill="#ffffff"></rect><g transform="matrix(0.6666666666666666,0,0,0.6666666666666666,250,250)"><svg viewBox="0 0 280 280" data-background-color="#ffffff" preserveAspectRatio="xMidYMid meet" height="1500" width="1500" xmlns="http://www.w3.org/2000/svg" xmlns:xlink="http://www.w3.org/1999/xlink"><g id="tight-bounds" transform="matrix(1,0,0,1,0,0)"><svg viewBox="0 0 280 280" height="280" width="280"><g><svg viewBox="0 0 280 280" height="280" width="280"><g><svg viewBox="0 0 280 280" height="280" width="280"><g id="textblocktransform"><svg viewBox="0 0 280 280" height="280" width="280" id="textblock"><g><svg viewBox="0 0 280 280" height="280" width="280"><g transform="matrix(1,0,0,1,74.00336708925556,90.14477703665167)"><svg viewBox="0 0 131.99326582148888 99.71044592669664" height="99.71044592669664" width="131.99326582148888"><g id="icon-0"><svg xmlns="http://www.w3.org/2000/svg" xmlns:xlink="http://www.w3.org/1999/xlink" version="1.1" x="0" y="0" viewBox="7.7489403724804315 19.039708991569306 74.582667158753 56.341291008430694" enable-background="new 0 0 90 90" xml:space="preserve" height="99.71044592669664" width="131.99326582148888" class="icon-jxe-0" data-fill-palette-color="accent" id="jxe-0"><g fill="#5a701f" data-fill-palette-color="accent"><g fill="#5a701f" data-fill-palette-color="accent"><path d="M78.996 26.146A0.682 0.682 0 0 0 77.75 25.828C74.904 30.117 68.072 32.54 61.132 31.716 55.149 31.008 51.223 26.603 50.109 22.81 49.466 20.629 47.21 19.119 44.656 19.056 44.635 19.053 44.616 19.041 44.594 19.04 44.532 19.038 44.474 19.047 44.413 19.046 44.352 19.047 44.294 19.038 44.233 19.04 44.211 19.041 44.192 19.053 44.171 19.056 41.606 19.119 39.36 20.629 38.719 22.81 37.603 26.603 33.677 31.008 27.695 31.716 20.754 32.535 13.923 30.117 11.077 25.828A0.69 0.69 0 0 0 10.33 25.548 0.68 0.68 0 0 0 9.829 26.169L7.75 64.591A0.68 0.68 0 0 0 7.985 65.144C11.992 68.603 16.327 70.256 21.615 70.256 23.276 70.256 25.031 70.093 26.899 69.771 35.228 68.337 39.18 62.838 40.492 60.541 41.659 58.499 43.609 58.063 45.04 58.059 46.471 58.064 48.42 58.499 49.588 60.541 50.901 62.838 54.855 68.337 63.182 69.771 65.05 70.093 66.805 70.256 68.465 70.256 73.752 70.256 78.089 68.603 82.095 65.144A0.68 0.68 0 0 0 82.329 64.569zM26.668 68.429C19.418 69.676 13.993 68.411 9.129 64.327L11.091 28.028C14.647 31.815 21.226 33.854 27.854 33.068 33.619 32.386 37.659 28.568 39.411 24.807L39.518 59.548C39.449 59.654 39.373 59.753 39.309 59.864 38.093 61.995 34.425 67.092 26.668 68.429M45.043 56.696H45.039C43.275 56.702 41.76 57.261 40.605 58.282L40.495 22.249C41.351 20.998 42.967 20.377 44.415 20.405 45.886 20.376 47.508 21.008 48.354 22.28L49.346 58.169C48.208 57.22 46.742 56.701 45.043 56.696M63.414 68.429C55.659 67.093 51.989 61.994 50.772 59.865 50.68 59.705 50.574 59.561 50.472 59.412L49.521 25.019C51.324 28.71 55.312 32.4 60.971 33.069 67.633 33.86 74.242 31.796 77.786 27.972L80.942 64.337C76.081 68.413 70.659 69.675 63.414 68.429" fill="#000000" data-fill-palette-color="accent"></path><path d="M28.25 72.129C35.21 70.425 40.077 67.117 43.129 62.013A0.547 0.547 0 0 0 42.193 61.453C39.298 66.293 34.652 69.438 27.991 71.069 20.79 72.833 14.277 70.986 10.581 68.671A0.546 0.546 0 0 0 10.001 69.595C12.812 71.355 17.164 72.859 22.207 72.859 24.137 72.859 26.167 72.639 28.25 72.129" fill="#000000" data-fill-palette-color="accent"></path><path d="M79.588 68.671C75.892 70.986 69.378 72.833 62.177 71.069 55.513 69.438 50.868 66.293 47.975 61.454A0.545 0.545 0 0 0 47.039 62.013C50.089 67.117 54.956 70.425 61.917 72.129 64 72.639 66.03 72.859 67.96 72.859 73.002 72.859 77.356 71.355 80.166 69.595A0.546 0.546 0 0 0 79.588 68.671" fill="#000000" data-fill-palette-color="accent"></path><path d="M79.124 71.887C73.728 74.448 67.87 74.972 61.214 73.491 54.288 71.952 47.716 67.172 45.586 62.127 45.578 62.108 45.563 62.095 45.553 62.078A0.5 0.5 0 0 0 45.468 61.953C45.433 61.918 45.389 61.894 45.347 61.87 45.329 61.86 45.316 61.844 45.296 61.835H45.293A0.55 0.55 0 0 0 44.876 61.835H44.873C44.853 61.843 44.84 61.86 44.822 61.87 44.779 61.894 44.736 61.917 44.7 61.952A0.5 0.5 0 0 0 44.615 62.077C44.605 62.094 44.59 62.106 44.582 62.125 42.453 67.17 35.88 71.949 28.954 73.489 22.298 74.969 16.441 74.444 11.044 71.885A0.546 0.546 0 0 0 10.577 72.87C14.102 74.543 17.917 75.381 21.978 75.381 24.304 75.381 26.712 75.106 29.19 74.555 36.075 73.024 42.416 68.607 45.084 63.598 47.752 68.608 54.093 73.024 60.978 74.555 63.457 75.106 65.864 75.381 68.191 75.381 72.251 75.381 76.066 74.543 79.591 72.87A0.546 0.546 0 0 0 79.85 72.143 0.546 0.546 0 0 0 79.124 71.887" fill="#000000" data-fill-palette-color="accent"></path></g></g></svg></g></svg></g><g id="text-0"><path d="M103.585 33.34l-5.604 1.673-13.72-25.471 3.617-1.08 10.002 19.105 1.914 3.684 0.378-0.113-0.44-4.124-1.873-20.772 5.197-1.552 9.823 18.398 1.894 3.69 0.378-0.112-0.4-4.136-2.111-21.462 3.578-1.068 2.512 28.818-5.565 1.662-7.803-14.672-3.851-7.488-0.34 0.101 0.856 8.383z" fill="#000000" data-fill-palette-color="primary"></path><path d="M197.409 42.509v0c-1.193-0.659-2.23-1.355-3.112-2.088-0.884-0.743-1.634-1.472-2.248-2.189-0.623-0.714-1.116-1.356-1.479-1.927v0l1.438-3.378c0.672 1.142 1.56 2.31 2.665 3.506 1.104 1.196 2.451 2.232 4.039 3.109v0c1.919 1.06 3.526 1.5 4.819 1.32 1.296-0.17 2.319-0.935 3.07-2.293v0l0.171-0.31c0.492-0.892 0.712-1.722 0.659-2.491-0.044-0.772-0.391-1.588-1.041-2.447-0.641-0.863-1.607-1.87-2.897-3.022v0c-1.621-1.473-2.825-2.816-3.612-4.029-0.789-1.222-1.181-2.425-1.175-3.608 0.003-1.177 0.376-2.439 1.12-3.785v0l0.097-0.178c1.122-2.031 2.652-3.232 4.591-3.602 1.944-0.367 4.269 0.196 6.973 1.689v0c1.772 0.978 3.181 1.992 4.228 3.04 1.053 1.052 1.85 2.016 2.391 2.892v0l-1.337 3.111c-0.615-1.049-1.428-2.103-2.439-3.161-1.014-1.053-2.312-2.016-3.894-2.891v0c-1.252-0.691-2.349-1.105-3.291-1.239-0.94-0.126-1.737-0.008-2.393 0.355-0.655 0.363-1.201 0.94-1.638 1.73v0l-0.039 0.071c-0.444 0.803-0.652 1.586-0.626 2.348 0.029 0.756 0.361 1.579 0.995 2.468 0.628 0.886 1.631 1.964 3.011 3.235v0c1.59 1.433 2.781 2.73 3.572 3.891 0.789 1.168 1.185 2.334 1.189 3.5 0.01 1.169-0.382 2.471-1.175 3.906v0l-0.225 0.407c-1.236 2.238-2.897 3.536-4.983 3.895-2.08 0.362-4.555-0.25-7.424-1.835z" fill="#000000" data-fill-palette-color="primary"></path><path d="M1.496 143.887c0-6.08 4.929-11.008 11.008-11.008 6.08 0 11.008 4.929 11.008 11.008 0 6.08-4.929 11.008-11.008 11.009-6.08 0-11.008-4.929-11.008-11.009z" fill="#000000" data-fill-palette-color="primary"></path><path d="M256.488 143.887c0-6.08 4.929-11.008 11.008-11.008 6.08 0 11.008 4.929 11.008 11.008 0 6.08-4.929 11.008-11.008 11.009-6.08 0-11.008-4.929-11.008-11.009z" fill="#000000" data-fill-palette-color="primary"></path></g><g id="text-1"><path d="M97.811 275.46l-5.707-1.68 2.429-29.325 3.679 1.083-2.061 21.839-0.415 4.202 0.389 0.115 1.909-3.763 9.916-18.746 5.3 1.56-1.831 21.126-0.433 4.197 0.388 0.114 1.958-3.748 10.098-19.473 3.631 1.068-13.826 25.971-5.659-1.666 1.477-16.842 0.86-8.512-0.349-0.103-3.908 7.615z" fill="#000000" data-fill-palette-color="secondary"></path><path d="M208.78 265.062v0c-1.209 0.672-2.371 1.19-3.488 1.556-1.114 0.356-2.146 0.61-3.097 0.76-0.951 0.15-1.769 0.226-2.454 0.229v0l-2.139-3.059c1.348 0.038 2.836-0.098 4.461-0.407 1.626-0.309 3.247-0.913 4.863-1.811v0c1.946-1.081 3.193-2.226 3.742-3.433 0.548-1.208 0.439-2.501-0.328-3.881v0l-0.177-0.318c-0.505-0.908-1.1-1.549-1.787-1.925-0.693-0.371-1.583-0.509-2.672-0.413-1.092 0.09-2.482 0.38-4.17 0.87v0c-2.142 0.604-3.952 0.915-5.431 0.934-1.476 0.025-2.719-0.283-3.731-0.925-1.018-0.638-1.907-1.641-2.668-3.009v0l-0.098-0.177c-1.147-2.064-1.356-4.031-0.629-5.902 0.73-1.88 2.47-3.583 5.218-5.11v0c1.798-0.999 3.433-1.668 4.904-2.007 1.474-0.333 2.737-0.498 3.788-0.495v0l1.953 2.827c-1.236-0.031-2.582 0.103-4.037 0.402-1.46 0.302-2.993 0.899-4.596 1.79v0c-1.274 0.708-2.222 1.431-2.845 2.171-0.614 0.742-0.943 1.497-0.989 2.263-0.043 0.757 0.159 1.536 0.605 2.338v0l0.044 0.079c0.452 0.814 1.013 1.413 1.682 1.798 0.669 0.385 1.561 0.545 2.675 0.481 1.105-0.066 2.576-0.351 4.411-0.853v0c2.091-0.598 3.854-0.926 5.288-0.982 1.429-0.053 2.649 0.233 3.661 0.86 1.012 0.626 1.922 1.668 2.731 3.124v0l0.231 0.416c1.261 2.27 1.486 4.403 0.673 6.398-0.81 1.986-2.675 3.79-5.594 5.411z" fill="#000000" data-fill-palette-color="secondary"></path></g></svg></g></svg></g></svg></g></svg></g><defs></defs></svg><rect width="280" height="280" fill="none" stroke="none" visibility="hidden"></rect></g></svg></g></svg>